<svg width="115" height="163" viewBox="0 0 115 163" fill="none" xmlns="http://www.w3.org/2000/svg">
<line x1="37.584" y1="24.9097" x2="37.584" y2="6.25689" stroke="#A8DADC"/>
<line x1="76.8271" y1="24.9015" x2="76.8271" y2="6.24871" stroke="#A8DADC"/>
<path d="M35.6602 2.97418H78.9998" stroke="#A8DADC" stroke-width="4"/>
<line x1="37.6553" y1="9.94812" x2="37.6553" y2="1.24349" stroke="#A8DADC" stroke-width="4"/>
<path d="M77.3101 10V1" stroke="#A8DADC" stroke-width="4"/>
<path fill-rule="evenodd" clip-rule="evenodd" d="M101.286 25.0061C100.584 24.9166 99.8666 24.8704 99.1379 24.8704H15.8621C15.6407 24.8704 15.4203 24.8746 15.2011 24.8831V162.888C15.4216 162.897 15.6431 162.901 15.8658 162.901H16.523C25.1149 157.927 34.3678 149.844 40.977 143.626C45.1349 139.715 47.2002 136.788 48.1602 135.154C48.5469 134.497 48.9012 133.821 49.2553 133.146C49.4141 132.844 49.5729 132.541 49.7345 132.24C50.8967 130.077 52.8736 125.816 52.8736 121.865V113.782L40.3161 119.378V115.025L52.8736 105.077L53.5345 95.1291L54.0544 89.7491C54.1421 88.8419 54.7225 88.0419 55.5886 87.6345C56.3758 87.2642 57.3024 87.2642 58.0896 87.6345C58.9557 88.0419 59.5361 88.8419 59.6238 89.7491L60.1437 95.1291L60.8046 105.077L73.3621 115.025V119.378L60.8046 113.782V121.865C60.8046 127.216 64.2312 132.106 65.1865 133.366C65.2256 133.417 65.2648 133.468 65.3041 133.52L65.3807 133.619C65.4777 133.745 65.5744 133.871 65.6701 134C66.7496 135.447 71.209 141.386 73.3621 143.626C82.1216 152.741 99.7989 162.901 99.7989 162.901C100.301 162.901 100.797 162.878 101.286 162.833V25.0061ZM101.782 25.0767V162.78C101.986 162.755 102.188 162.727 102.39 162.694V25.1842C102.188 25.1448 101.986 25.1089 101.782 25.0767ZM13.2184 25.0767C13.6533 25.008 14.0941 24.9561 14.5402 24.9214V162.85C14.0941 162.815 13.6533 162.763 13.2184 162.694V25.0767ZM115 39.7926C115 33.4281 110.765 27.9942 104.801 25.8493V162.109C110.739 160.163 115 154.85 115 148.6V39.7926ZM0 39.7926C0 33.2954 4.41393 27.768 10.5747 25.7195V162.051C4.41467 160.001 0 154.475 0 147.979V39.7926Z" fill="#A8DADC"/>
</svg>
