<svg width="619" height="163" viewBox="0 0 619 163" fill="none" xmlns="http://www.w3.org/2000/svg">
<path d="M157.8 119.701C154.92 119.701 152.28 118.981 149.88 117.541C147.533 116.047 145.64 114.101 144.2 111.701C142.813 109.247 142.12 106.554 142.12 103.621V99.9408C142.12 99.6741 142.253 99.5408 142.52 99.5408H151.48C151.693 99.5408 151.8 99.6741 151.8 99.9408V103.621C151.8 105.381 152.387 106.901 153.56 108.181C154.733 109.407 156.147 110.021 157.8 110.021C159.453 110.021 160.867 109.381 162.04 108.101C163.213 106.821 163.8 105.327 163.8 103.621C163.8 101.647 162.52 99.9408 159.96 98.5008C159.107 98.0208 157.773 97.2741 155.96 96.2608C154.147 95.2474 152.44 94.2874 150.84 93.3808C147.907 91.6741 145.72 89.5408 144.28 86.9808C142.893 84.3674 142.2 81.4341 142.2 78.1808C142.2 75.1941 142.92 72.5274 144.36 70.1808C145.8 67.7808 147.693 65.8874 150.04 64.5008C152.44 63.1141 155.027 62.4208 157.8 62.4208C160.627 62.4208 163.213 63.1408 165.56 64.5808C167.96 65.9674 169.853 67.8608 171.24 70.2608C172.68 72.6074 173.4 75.2474 173.4 78.1808V84.7408C173.4 84.9541 173.293 85.0608 173.08 85.0608H164.12C163.907 85.0608 163.8 84.9541 163.8 84.7408L163.72 78.1808C163.72 76.3141 163.133 74.7941 161.96 73.6208C160.787 72.4474 159.4 71.8608 157.8 71.8608C156.147 71.8608 154.733 72.5008 153.56 73.7808C152.387 75.0074 151.8 76.4741 151.8 78.1808C151.8 79.9408 152.173 81.4074 152.92 82.5808C153.667 83.7541 155.027 84.8741 157 85.9408C157.267 86.1008 157.773 86.3941 158.52 86.8208C159.32 87.1941 160.173 87.6474 161.08 88.1808C161.987 88.6608 162.787 89.0874 163.48 89.4608C164.227 89.8341 164.68 90.0741 164.84 90.1808C167.507 91.6741 169.613 93.5141 171.16 95.7008C172.707 97.8341 173.48 100.474 173.48 103.621C173.48 106.661 172.76 109.407 171.32 111.861C169.933 114.261 168.04 116.181 165.64 117.621C163.293 119.007 160.68 119.701 157.8 119.701ZM199.844 118.901C199.577 118.901 199.444 118.767 199.444 118.501L199.524 63.5408C199.524 63.3274 199.63 63.2208 199.844 63.2208H208.804C209.017 63.2208 209.124 63.3274 209.124 63.5408L209.204 118.501C209.204 118.767 209.097 118.901 208.884 118.901H199.844ZM236.961 118.901C236.747 118.901 236.641 118.767 236.641 118.501L236.721 63.6208C236.721 63.3541 236.854 63.2208 237.121 63.2208H246.001C246.267 63.2208 246.401 63.3541 246.401 63.6208L246.321 109.061H262.801C263.067 109.061 263.201 109.194 263.201 109.461V118.501C263.201 118.767 263.067 118.901 262.801 118.901H236.961ZM302.544 119.701C299.664 119.701 297.024 118.981 294.624 117.541C292.277 116.047 290.384 114.101 288.944 111.701C287.504 109.247 286.784 106.554 286.784 103.621L286.864 78.2608C286.864 75.3274 287.557 72.6608 288.944 70.2608C290.384 67.8608 292.304 65.9408 294.704 64.5008C297.104 63.0608 299.717 62.3408 302.544 62.3408C305.424 62.3408 308.037 63.0608 310.384 64.5008C312.73 65.9408 314.597 67.8608 315.984 70.2608C317.424 72.6608 318.144 75.3274 318.144 78.2608L318.224 103.621C318.224 106.554 317.504 109.247 316.064 111.701C314.677 114.101 312.784 116.047 310.384 117.541C308.037 118.981 305.424 119.701 302.544 119.701ZM302.544 110.021C304.144 110.021 305.53 109.381 306.704 108.101C307.93 106.767 308.544 105.274 308.544 103.621L308.464 78.2608C308.464 76.5008 307.904 75.0074 306.784 73.7808C305.664 72.5541 304.25 71.9408 302.544 71.9408C300.89 71.9408 299.477 72.5541 298.304 73.7808C297.13 74.9541 296.544 76.4474 296.544 78.2608V103.621C296.544 105.381 297.13 106.901 298.304 108.181C299.477 109.407 300.89 110.021 302.544 110.021ZM345.106 118.901C344.84 118.901 344.706 118.767 344.706 118.501L344.866 63.5408C344.866 63.3274 344.973 63.2208 345.186 63.2208L360.146 63.1408C363.08 63.0874 365.746 63.7808 368.146 65.2208C370.6 66.6608 372.546 68.6074 373.986 71.0608C375.426 73.4608 376.146 76.1274 376.146 79.0608V102.021C376.146 105.114 375.4 107.941 373.906 110.501C372.413 113.007 370.413 115.007 367.906 116.501C365.4 117.994 362.573 118.767 359.426 118.821L345.106 118.901ZM354.466 109.061H359.426C361.4 109.061 363.053 108.367 364.386 106.981C365.773 105.594 366.466 103.941 366.466 102.021V78.9808C366.466 77.2741 365.826 75.8074 364.546 74.5808C363.32 73.3008 361.853 72.6874 360.146 72.7408L354.546 72.8208L354.466 109.061ZM403.241 118.901C402.974 118.901 402.841 118.767 402.841 118.501L402.921 63.5408C402.921 63.3274 403.027 63.2208 403.241 63.2208H412.201C412.414 63.2208 412.521 63.3274 412.521 63.5408L412.601 118.501C412.601 118.767 412.494 118.901 412.281 118.901H403.241ZM447.477 118.901C447.317 118.901 447.237 118.794 447.237 118.581L447.317 95.8608L436.597 63.5408C436.544 63.3274 436.624 63.2208 436.837 63.2208H445.717C445.984 63.2208 446.144 63.3274 446.197 63.5408L452.117 85.0608L458.117 63.5408C458.171 63.3274 458.304 63.2208 458.517 63.2208H467.477C467.691 63.2208 467.771 63.3274 467.717 63.5408L456.917 95.5408L456.997 118.581C456.997 118.794 456.891 118.901 456.677 118.901H447.477ZM485.374 118.501L495.294 63.5408C495.347 63.3274 495.48 63.2208 495.694 63.2208H507.294C507.507 63.2208 507.64 63.3274 507.694 63.5408L517.214 118.501C517.267 118.767 517.16 118.901 516.894 118.901H508.014C507.8 118.901 507.667 118.767 507.614 118.501L506.734 112.661H495.854L494.974 118.501C494.92 118.767 494.787 118.901 494.574 118.901H485.694C485.48 118.901 485.374 118.767 485.374 118.501ZM497.454 104.101H505.134L501.854 81.6208L501.374 78.6608L501.054 81.6208L497.454 104.101ZM546.806 118.901C546.593 118.901 546.486 118.767 546.486 118.501V72.9008H536.086C535.82 72.9008 535.686 72.7674 535.686 72.5008L535.766 63.5408C535.766 63.3274 535.873 63.2208 536.086 63.2208H566.486C566.753 63.2208 566.886 63.3274 566.886 63.5408V72.5008C566.886 72.7674 566.78 72.9008 566.566 72.9008H556.086L556.166 118.501C556.166 118.767 556.06 118.901 555.846 118.901H546.806ZM584.846 118.501L594.766 63.5408C594.819 63.3274 594.952 63.2208 595.166 63.2208H606.766C606.979 63.2208 607.112 63.3274 607.166 63.5408L616.686 118.501C616.739 118.767 616.632 118.901 616.366 118.901H607.486C607.272 118.901 607.139 118.767 607.086 118.501L606.206 112.661H595.326L594.446 118.501C594.392 118.767 594.259 118.901 594.046 118.901H585.166C584.952 118.901 584.846 118.767 584.846 118.501ZM596.926 104.101H604.606L601.326 81.6208L600.846 78.6608L600.526 81.6208L596.926 104.101Z" fill="black"/>
<line x1="37.584" y1="24.9097" x2="37.584" y2="6.25689" stroke="black"/>
<line x1="76.8271" y1="24.9015" x2="76.8271" y2="6.24871" stroke="black"/>
<line x1="34.3677" y1="2.97418" x2="79.3102" y2="2.97418" stroke="black" stroke-width="4"/>
<line x1="37.6553" y1="9.94812" x2="37.6553" y2="1.24349" stroke="black" stroke-width="4"/>
<line x1="77.3101" y1="9.94812" x2="77.3101" y2="-2.47955e-05" stroke="black" stroke-width="4"/>
<path fill-rule="evenodd" clip-rule="evenodd" d="M101.286 25.0061C100.584 24.9166 99.8666 24.8704 99.1379 24.8704H15.8621C15.6407 24.8704 15.4203 24.8746 15.2011 24.8831V162.888C15.4216 162.897 15.6431 162.901 15.8658 162.901H16.523C25.1149 157.927 34.3678 149.844 40.977 143.626C45.1349 139.715 47.2002 136.788 48.1602 135.154C48.5469 134.497 48.9012 133.821 49.2553 133.146C49.4141 132.844 49.5729 132.541 49.7345 132.24C50.8967 130.077 52.8736 125.816 52.8736 121.865V113.782L40.3161 119.378V115.025L52.8736 105.077L53.5345 95.1291L54.0544 89.7491C54.1421 88.8419 54.7225 88.0419 55.5886 87.6345C56.3758 87.2642 57.3024 87.2642 58.0896 87.6345C58.9557 88.0419 59.5361 88.8419 59.6238 89.7491L60.1437 95.1291L60.8046 105.077L73.3621 115.025V119.378L60.8046 113.782V121.865C60.8046 127.216 64.2312 132.106 65.1865 133.366C65.2256 133.417 65.2648 133.468 65.3041 133.52L65.3807 133.619C65.4777 133.745 65.5744 133.871 65.6701 134C66.7496 135.447 71.209 141.386 73.3621 143.626C82.1216 152.741 99.7989 162.901 99.7989 162.901C100.301 162.901 100.797 162.878 101.286 162.833V25.0061ZM101.782 25.0767V162.78C101.986 162.755 102.188 162.727 102.39 162.694V25.1842C102.188 25.1448 101.986 25.1089 101.782 25.0767ZM13.2184 25.0767C13.6533 25.008 14.0941 24.9561 14.5402 24.9214V162.85C14.0941 162.815 13.6533 162.763 13.2184 162.694V25.0767ZM115 39.7926C115 33.4281 110.765 27.9942 104.801 25.8493V162.109C110.739 160.163 115 154.85 115 148.6V39.7926ZM0 39.7926C0 33.2954 4.41393 27.768 10.5747 25.7195V162.051C4.41467 160.001 0 154.475 0 147.979V39.7926Z" fill="black"/>
</svg>
